<?xml version="1.0" encoding="UTF-8" standalone="no"?>
<!-- Created with Inkscape (http://www.inkscape.org/) -->

<svg
   xmlns:dc="http://purl.org/dc/elements/1.1/"
   xmlns:cc="http://creativecommons.org/ns#"
   xmlns:rdf="http://www.w3.org/1999/02/22-rdf-syntax-ns#"
   xmlns:svg="http://www.w3.org/2000/svg"
   xmlns="http://www.w3.org/2000/svg"
   xmlns:sodipodi="http://sodipodi.sourceforge.net/DTD/sodipodi-0.dtd"
   xmlns:inkscape="http://www.inkscape.org/namespaces/inkscape"
   width="1583px"
   height="1097px"
   viewBox="0 0 1583 1097"
   version="1.1"
   id="SVGRoot"
   inkscape:version="0.92.4 (5da689c313, 2019-01-14)"
   sodipodi:docname="wave2.svg">
  <defs
     id="defs3206">
    <filter
       inkscape:collect="always"
       style="color-interpolation-filters:sRGB"
       id="filter1508"
       x="-0.049874999"
       width="1.09975"
       y="-0.075283021"
       height="1.150566">
      <feGaussianBlur
         inkscape:collect="always"
         stdDeviation="29.925"
         id="feGaussianBlur1510" />
    </filter>
  </defs>
  <sodipodi:namedview
     id="base"
     pagecolor="#ffffff"
     bordercolor="#666666"
     borderopacity="1.0"
     inkscape:pageopacity="0.0"
     inkscape:pageshadow="2"
     inkscape:zoom="3.6592664"
     inkscape:cx="48.463317"
     inkscape:cy="1075.0636"
     inkscape:document-units="px"
     inkscape:current-layer="layer1"
     showgrid="false"
     inkscape:window-width="1366"
     inkscape:window-height="704"
     inkscape:window-x="0"
     inkscape:window-y="126"
     inkscape:window-maximized="1" />
  <metadata
     id="metadata3209">
    <rdf:RDF>
      <cc:Work
         rdf:about="">
        <dc:format>image/svg+xml</dc:format>
        <dc:type
           rdf:resource="http://purl.org/dc/dcmitype/StillImage" />
        <dc:title></dc:title>
      </cc:Work>
    </rdf:RDF>
  </metadata>
  <g
     inkscape:label="Layer 1"
     inkscape:groupmode="layer"
     id="layer1">
    <path
       sodipodi:nodetypes="csscssccccccccccc"
       inkscape:connector-curvature="0"
       style="opacity:0.2;fill:#000000;fill-opacity:1;filter:url(#filter1508)"
       id="path1490"
       d="M 71.797001,1025.6546 C 184.8949,910.00528 221.11069,736.62271 223.69147,650.02218 227.52184,521.4906 135.94489,456.95495 175.797,359.65464 c 66.34636,-161.98693 273.06498,-204.27992 432,-230.7 96,-16.3 232,-14.3 328.00002,22.7 95.99998,37 191.99998,123 287.99998,144 96,21 192,-21 240,-42.7 l 48,-21.3 V 71.654643 h -48 -240 -287.99998 -288.00002 -288 -240 -47.999999 z"
       inkscape:export-xdpi="221.877"
       inkscape:export-ydpi="221.877" />
    <path
       d="M 71.797001,1025.6546 C 184.8949,910.00528 221.11069,736.62271 223.69147,650.02218 227.52184,521.4906 135.94489,456.95495 175.797,359.65464 c 66.34636,-161.98693 273.06498,-204.27992 432,-230.7 96,-16.3 232,-14.3 328.00002,22.7 95.99998,37 191.99998,123 287.99998,144 96,21 192,-21 240,-42.7 l 48,-21.3 V 71.654643 h -48 -240 -287.99998 -288.00002 -288 -240 -47.999999 z"
       id="path2"
       style="fill:#def2f1;fill-opacity:1"
       inkscape:connector-curvature="0"
       sodipodi:nodetypes="csscssccccccccccc" />
  </g>
</svg>
