<?xml version="1.0" encoding="UTF-8" standalone="no"?>
<svg
   xmlns:dc="http://purl.org/dc/elements/1.1/"
   xmlns:cc="http://creativecommons.org/ns#"
   xmlns:rdf="http://www.w3.org/1999/02/22-rdf-syntax-ns#"
   xmlns:svg="http://www.w3.org/2000/svg"
   xmlns="http://www.w3.org/2000/svg"
   xmlns:sodipodi="http://sodipodi.sourceforge.net/DTD/sodipodi-0.dtd"
   xmlns:inkscape="http://www.inkscape.org/namespaces/inkscape"
   viewBox="0 0 1440 320"
   version="1.1"
   id="svg4"
   sodipodi:docname="wave (1).svg"
   inkscape:version="0.92.4 (5da689c313, 2019-01-14)">
  <metadata
     id="metadata10">
    <rdf:RDF>
      <cc:Work
         rdf:about="">
        <dc:format>image/svg+xml</dc:format>
        <dc:type
           rdf:resource="http://purl.org/dc/dcmitype/StillImage" />
      </cc:Work>
    </rdf:RDF>
  </metadata>
  <defs
     id="defs8">
    <filter
       inkscape:collect="always"
       style="color-interpolation-filters:sRGB"
       id="filter1530"
       x="-0.036"
       width="1.072"
       y="-0.18"
       height="1.36">
      <feGaussianBlur
         inkscape:collect="always"
         stdDeviation="21.6"
         id="feGaussianBlur1532" />
    </filter>
  </defs>
  <sodipodi:namedview
     pagecolor="#ffffff"
     bordercolor="#666666"
     borderopacity="1"
     objecttolerance="10"
     gridtolerance="10"
     guidetolerance="10"
     inkscape:pageopacity="0"
     inkscape:pageshadow="2"
     inkscape:window-width="1366"
     inkscape:window-height="704"
     id="namedview6"
     showgrid="false"
     inkscape:zoom="0.91666667"
     inkscape:cx="497.56903"
     inkscape:cy="185.101"
     inkscape:window-x="0"
     inkscape:window-y="27"
     inkscape:window-maximized="1"
     inkscape:current-layer="svg4" />
  <path
     style="fill:#000000;fill-opacity:1;filter:url(#filter1530);opacity:0.2"
     inkscape:connector-curvature="0"
     id="path1500"
     d="M 0,288 40,256 C 80,224 160,160 240,133.3 320,107 400,117 480,144 c 80,27 160,69 240,80 80,11 160,-11 240,-48 80,-37 160,-91 240,-112 80,-21 160,-11 200,-5.3 l 40,5.3 V 0 h -40 C 1360,0 1280,0 1200,0 1120,0 1040,0 960,0 880,0 800,0 720,0 640,0 560,0 480,0 400,0 320,0 240,0 160,0 80,0 40,0 H 0 Z" />
  <path
     d="M 0,288 40,256 C 80,224 160,160 240,133.3 320,107 400,117 480,144 c 80,27 160,69 240,80 80,11 160,-11 240,-48 80,-37 160,-91 240,-112 80,-21 160,-11 200,-5.3 l 40,5.3 V 0 h -40 C 1360,0 1280,0 1200,0 1120,0 1040,0 960,0 880,0 800,0 720,0 640,0 560,0 480,0 400,0 320,0 240,0 160,0 80,0 40,0 H 0 Z"
     id="path2"
     inkscape:connector-curvature="0"
     style="fill:#def2f1;fill-opacity:1" />
  <rect
     style="opacity:0.2;fill:#000000;fill-opacity:1;fill-rule:nonzero;stroke:none;stroke-width:9.60000038;stroke-linecap:round;stroke-linejoin:round;stroke-miterlimit:4;stroke-dasharray:none;stroke-dashoffset:0;stroke-opacity:1;paint-order:markers fill stroke"
     id="rect1534"
     width="607.63635"
     height="381.81818"
     x="0"
     y="0"
     rx="0"
     ry="0" />
</svg>
