<?xml version="1.0" encoding="UTF-8" standalone="no"?>
<svg
   xmlns:dc="http://purl.org/dc/elements/1.1/"
   xmlns:cc="http://creativecommons.org/ns#"
   xmlns:rdf="http://www.w3.org/1999/02/22-rdf-syntax-ns#"
   xmlns:svg="http://www.w3.org/2000/svg"
   xmlns="http://www.w3.org/2000/svg"
   xmlns:sodipodi="http://sodipodi.sourceforge.net/DTD/sodipodi-0.dtd"
   xmlns:inkscape="http://www.inkscape.org/namespaces/inkscape"
   viewBox="0 0 1440 320"
   version="1.1"
   id="svg4"
   sodipodi:docname="wave.svg"
   inkscape:version="0.92.4 (5da689c313, 2019-01-14)">
  <metadata
     id="metadata10">
    <rdf:RDF>
      <cc:Work
         rdf:about="">
        <dc:format>image/svg+xml</dc:format>
        <dc:type
           rdf:resource="http://purl.org/dc/dcmitype/StillImage" />
      </cc:Work>
    </rdf:RDF>
  </metadata>
  <defs
     id="defs8">
    <filter
       inkscape:collect="always"
       style="color-interpolation-filters:sRGB"
       id="filter883"
       x="-0.036666667"
       width="1.0733333"
       y="-0.165"
       height="1.33">
      <feGaussianBlur
         inkscape:collect="always"
         stdDeviation="22"
         id="feGaussianBlur885" />
    </filter>
  </defs>
  <sodipodi:namedview
     pagecolor="#ffffff"
     bordercolor="#666666"
     borderopacity="1"
     objecttolerance="10"
     gridtolerance="10"
     guidetolerance="10"
     inkscape:pageopacity="0"
     inkscape:pageshadow="2"
     inkscape:window-width="1366"
     inkscape:window-height="704"
     id="namedview6"
     showgrid="false"
     inkscape:zoom="0.64818122"
     inkscape:cx="518.55994"
     inkscape:cy="242.38279"
     inkscape:window-x="0"
     inkscape:window-y="126"
     inkscape:window-maximized="1"
     inkscape:current-layer="svg4" />
  <path
     id="path817"
     d="M0,320L48,288C96,256,192,192,288,149.3C384,107,480,85,576,69.3C672,53,768,43,864,80C960,117,1056,203,1152,224C1248,245,1344,203,1392,181.3L1440,160L1440,0L1392,0C1344,0,1248,0,1152,0C1056,0,960,0,864,0C768,0,672,0,576,0C480,0,384,0,288,0C192,0,96,0,48,0L0,0Z"
     fill-opacity="1"
     fill="#def2f1"
     style="fill:#000000;opacity:0.2;filter:url(#filter883)" />
  <path
     fill="#def2f1"
     fill-opacity="1"
     d="M0,320L48,288C96,256,192,192,288,149.3C384,107,480,85,576,69.3C672,53,768,43,864,80C960,117,1056,203,1152,224C1248,245,1344,203,1392,181.3L1440,160L1440,0L1392,0C1344,0,1248,0,1152,0C1056,0,960,0,864,0C768,0,672,0,576,0C480,0,384,0,288,0C192,0,96,0,48,0L0,0Z"
     id="path2"
     style="fill:#def2f1;fill-opacity:1" />
</svg>
